<svg xmlns="http://www.w3.org/2000/svg" viewBox="0 0 16 16">
	<path
		d="M7.333.667C7.333.298 7.632 0 8 0s.667.298.667.667v1.37a5.97 5.97 0 0 1 3.078 1.275l.969-.969c.26-.26.682-.26.943 0s.26.682 0 .943l-.969.969a5.97 5.97 0 0 1 1.275 3.078h1.37c.368 0 .667.298.667.667s-.299.667-.667.667h-1.37a5.97 5.97 0 0 1-1.275 3.078l.969.969c.26.26.26.682 0 .943s-.683.26-.943 0l-.969-.969a5.97 5.97 0 0 1-3.078 1.275v1.37c0 .368-.298.667-.667.667s-.667-.299-.667-.667v-1.37a5.97 5.97 0 0 1-3.078-1.275l-.969.969c-.26.26-.682.26-.943 0s-.26-.683 0-.943l.969-.969a5.97 5.97 0 0 1-1.275-3.078H.667C.298 8.667 0 8.368 0 8s.298-.667.667-.667h1.37a5.97 5.97 0 0 1 1.275-3.078l-.969-.969c-.26-.26-.26-.682 0-.943s.682-.26.943 0l.969.969a5.97 5.97 0 0 1 3.078-1.275V.667z"
		fill="#000" />
	<circle cx="6.667" cy="6" fill="url(#A)" r="2" />
	<defs>
		<radialGradient id="A" cx="0" cy="0" r="2" gradientUnits="userSpaceOnUse" gradientTransform="translate(6.7 6)">
			<stop offset=".25" stop-color="#fff" />
			<stop offset="2" stop-color="#fff" stop-opacity="0" />
		</radialGradient>
	</defs>
</svg>